<?xml version="1.0" encoding="UTF-8"?>
<svg id="Layer_1" data-name="Layer 1" xmlns="http://www.w3.org/2000/svg" version="1.1" viewBox="0 0 2500 2500">
  <defs>
    <style>
      .cls-1 {
        stroke: #fdfeff;
        stroke-width: 43px;
      }

      .cls-1, .cls-2 {
        fill: none;
        stroke-miterlimit: 10;
      }

      .cls-2 {
        stroke: #fff;
        stroke-width: 45px;
      }

      .cls-3 {
        fill: #070707;
      }

      .cls-3, .cls-4 {
        stroke-width: 0px;
      }

      .cls-4 {
        fill: #fff;
      }

      .cls-5 {
        display: none;
      }
    </style>
  </defs>
  <g>
    <path class="cls-2" d="M1073.84,1450.36l-88.96-154.08c-4.67-8.09-4.65-18.06.06-26.13l90.63-155.32c.86-1.47,1.89-2.8,2.99-4.05-2.44-.75-4.99-1.18-7.61-1.18h-180.3c-9.3,0-17.89,4.96-22.54,13.01l-90.15,156.14c-4.65,8.05-4.65,17.98,0,26.03l90.15,156.14c4.65,8.05,13.24,13.01,22.54,13.01h180.3c8.47,0,16.32-4.15,21.17-10.96-7.6-1.27-14.35-5.82-18.28-12.62Z"/>
    <path class="cls-2" d="M1277.76,1101.09c9.34-.04,17.99,4.92,22.66,13.01l88.96,154.08c2.57,4.45,3.67,9.48,3.4,14.44,6.65-1.74,12.45-6.05,15.97-12.16l90.15-156.14c4.65-8.05,4.65-17.98,0-26.03l-90.15-156.14c-4.65-8.05-13.24-13.01-22.54-13.01h-180.3c-9.3,0-17.89,4.96-22.54,13.01l-90.15,156.14c-2.67,4.62-3.75,9.85-3.36,15,2.58-.86,5.29-1.37,8.08-1.38l179.82-.82Z"/>
    <path class="cls-2" d="M1506.51,1454.01l-90.15-156.14c-4.65-8.05-13.24-13.01-22.54-13.01h-1.22c-.47,3.29-1.55,6.5-3.28,9.46l-90.63,155.32c-4.64,7.96-13.15,12.87-22.36,12.91l-178.72.82c-.81,5.67.25,11.55,3.21,16.67l90.15,156.14c4.65,8.05,13.24,13.01,22.54,13.01h180.3c9.3,0,17.89-4.96,22.54-13.01l90.15-156.14c4.65-8.05,4.65-17.98,0-26.03Z"/>
  </g>
  <g>
    <path class="cls-4" d="M1348.37,1369.34c-3.76,23.18-14.89,44.59-32.19,61.94-18.03,18.08-42.25,31.1-70.04,37.65,0,0-.02,0-.03,0-.47.11-.94.22-1.39.32-.01,0-.02,0-.03,0-1.32.3-2.74.61-4.34.93-6.95,1.39-14.13,2.4-21.33,3-5.77.49-11.72.74-17.69.74s-12.54-.26-18.9-.79c-2.53-.21-4.86-.44-7.15-.7-6.84-.76-13.85-1.84-20.82-3.19-.06-.01-.12-.03-.18-.04-.21-.04-.42-.08-.62-.12-.25-.05-.5-.1-.75-.15l-.12-.03c-.56-.11-1.13-.23-1.7-.35-.06-.01-.12-.03-.18-.04-.07-.01-.14-.03-.21-.03-.03,0-.07-.01-.11-.02h-.08s-.05-.03-.05-.03h-.02s-.07-.02-.1-.02c-.02,0-.04,0-.06,0-.05-.01-.1-.02-.15-.03,0,0-.02,0-.03,0,0,0-.02,0-.03,0-.77-.17-1.59-.35-2.66-.6-.04,0-.08-.02-.12-.03-.06-.02-.12-.03-.18-.05-1.36-.34-2.73-.69-4.09-1.05,1.97.08,3.93.12,5.89.12.36,0,.73,0,1.1,0s.76,0,1.14,0c22.26,0,43.57-5.54,61.63-16.03,17.4-10.1,31.2-24.37,39.92-41.25,7.87-15.24,11.28-32.26,9.88-49.21-1.52-18.3-8.39-36.08-20.42-52.85-.03-.04-.06-.09-.09-.13l-.23-.32c-.16-.22-.31-.43-.47-.64-.12-.17-.26-.33-.42-.47-.01-.01-.03-.03-.04-.03-.15-.15-.3-.29-.46-.43-.57-.75-1.1-1.44-1.63-2.11-.01-.02-.03-.03-.04-.05-.22-.28-.44-.56-.67-.84l-.03-.05c-.04-.05-.09-.11-.13-.16-5.15-6.4-11.16-12.62-17.86-18.49-.02-.01-.03-.03-.05-.04-.34-.29-.8-.85-1.24-1.4-.58-.72-1.24-1.54-2.04-2.24-.02-.01-.03-.03-.05-.04-8.29-6.99-14.08-15.13-16.74-23.53-2.38-7.49-2.3-15.07.23-21.94,2.25-6.12,6.33-11.31,11.78-15.02,5.72-3.9,12.73-5.95,20.26-5.95,6.8,0,13.9,1.63,21.1,4.86,2.52,1.46,5.02,2.86,7.44,4.21l.89.5s.09.05.13.07l.75.42c.14.13.29.24.46.35.44.28,1.03.58,2,1.02l.24.13c.23.13.45.26.68.39.08.06.17.11.26.17,16.08,9.87,30.18,20.96,41.94,32.95,11.09,11.33,20.16,23.54,26.94,36.29,12.73,23.93,17.34,49.66,13.32,74.41Z"/>
    <path class="cls-4" d="M1213.48,1419.2c-18.03,19.91-42.47,33.38-70.4,36.5-38.44,4.3-74.74-11.99-99.27-40.57-5.29-6.52-10.14-13.47-14.49-20.77,0,0-.01-.02-.02-.03-15.92-26.76-25.15-58.39-25.22-92.3,0-4.45-.31-3.19,0-7.55,2.13,9.61,5.46,13.27,9.05,22.2,18.67,46.56,56.19,83.01,102.67,99.21,17.06,5.95,35.34,9.16,54.32,9.15,14.99-.02,29.52-2.05,43.35-5.84Z"/>
    <path class="cls-4" d="M1370.97,1357.72c-.45,1.11-.92,2.21-1.41,3.3-.24.55-.48,1.09-.73,1.63-6.64,14.53-16.04,28.09-27.89,40.09h-.01c-20.89,20.37-45.1,32.74-69.27,39.97,19.55-7.15,36.71-17.53,50.41-30.61,17.89-17.08,29.4-38.15,33.29-60.96,4.15-24.36-.61-49.69-13.77-73.24-7.01-12.55-16.39-24.57-27.86-35.72-8.07-7.84-17.21-15.28-27.31-22.24,6.19-4.16,4.5-14.73-7.34-22.54-24.97-16.63-16.77-35.64,9.3-23.73,1.3.75,2.59,1.5,3.87,2.27h0c1.72,1.34,3.85,2.66,5.79,3.6t0,0s.06.04.09.06c.54.36,1.08.72,1.62,1.08,29.48,19.85,50.22,42.4,63.26,65.84.48.86.95,1.72,1.41,2.59.24.45.48.9.71,1.36,18.67,36.06,19.38,73.98,5.83,107.24Z"/>
    <path class="cls-4" d="M1236.57,1310.37c-.19-.29-.4-.56-.65-.82-1.02-1.06-2.46-1.72-4.05-1.72s-3.15.72-4.18,1.85c0,.01-.02.03-.03.04-.36.46-.68.95-.94,1.47-1.08,2.16-1.13,4.72.66,6.99.02,0,.03.03.04.04,4.28,5.14,5.08,11.53,1.73,14.45-1.69,1.6-4.33,1.8-7.06.98-1.97-.59-3.66,1.43-2.67,3.23,18.3,33.29,13.05,64.81-6.19,87.35-18.82,22.05-51.03,35.5-87.69,33.6-7.88-.4-15.96-1.52-24.17-3.41,6.52,2.69,13.33,4.82,20.38,6.33.03,0,.05.01.07.02,7.76,1.66,15.82,2.56,24.08,2.62.32,0,.63,0,.95,0,.26,0,.52,0,.78,0h0c.78,0,1.57,0,2.35,0,39.21.33,72.12-16.7,91.32-42.2,9.82-14.98,15.53-32.88,15.53-52.1,0-22.13-7.57-42.51-20.27-58.7ZM1244.78,1414.63h0s-.03.05-.05.07c.02-.02.03-.05.04-.07Z"/>
  </g>
  <g class="cls-5">
    <rect class="cls-3" x="542.11" y="285.76" width="1089.02" height="1057.99" rx="96.53" ry="96.53"/>
    <g class="cls-5">
      <path class="cls-1" d="M991.66,982.49l-88.96-154.08c-4.67-8.09-4.65-18.06.06-26.13l90.63-155.32c.86-1.47,1.89-2.8,2.99-4.05-2.44-.75-4.99-1.18-7.61-1.18h-180.3c-9.3,0-17.89,4.96-22.54,13.01l-90.15,156.14c-4.65,8.05-4.65,17.98,0,26.03l90.15,156.14c4.65,8.05,13.24,13.01,22.54,13.01h180.3c8.47,0,16.32-4.15,21.17-10.96-7.6-1.27-14.35-5.82-18.28-12.62Z"/>
      <path class="cls-1" d="M1195.57,633.22c9.34-.04,17.99,4.92,22.66,13.01l88.96,154.08c2.57,4.45,3.67,9.48,3.4,14.44,6.65-1.74,12.45-6.05,15.97-12.16l90.15-156.14c4.65-8.05,4.65-17.98,0-26.03l-90.15-156.14c-4.65-8.05-13.24-13.01-22.54-13.01h-180.3c-9.3,0-17.89,4.96-22.54,13.01l-90.15,156.14c-2.67,4.62-3.75,9.85-3.36,15,2.58-.86,5.29-1.37,8.08-1.38l179.82-.82Z"/>
      <path class="cls-1" d="M1424.32,986.14l-90.15-156.14c-4.65-8.05-13.24-13.01-22.54-13.01h-1.22c-.47,3.29-1.55,6.5-3.28,9.46l-90.63,155.32c-4.64,7.96-13.15,12.87-22.36,12.91l-178.72.82c-.81,5.67.25,11.55,3.21,16.67l90.15,156.14c4.65,8.05,13.24,13.01,22.54,13.01h180.3c9.3,0,17.89-4.96,22.54-13.01l90.15-156.14c4.65-8.05,4.65-17.98,0-26.03Z"/>
    </g>
  </g>
  <g class="cls-5">
    <path class="cls-4" d="M1266.18,901.47c-3.76,23.18-14.89,44.59-32.19,61.94-18.03,18.08-42.25,31.1-70.04,37.65,0,0-.02,0-.03,0-.47.11-.94.22-1.39.32-.01,0-.02,0-.03,0-1.32.3-2.74.61-4.34.93-6.95,1.39-14.13,2.4-21.33,3-5.77.49-11.72.74-17.69.74s-12.54-.26-18.9-.79c-2.53-.21-4.86-.44-7.15-.7-6.84-.76-13.85-1.84-20.82-3.19-.06-.01-.12-.03-.18-.04-.21-.04-.42-.08-.62-.12-.25-.05-.5-.1-.75-.15l-.12-.03c-.56-.11-1.13-.23-1.7-.35-.06-.01-.12-.03-.18-.04-.07-.01-.14-.03-.21-.03-.03,0-.07-.01-.11-.02h-.08s-.05-.03-.05-.03h-.02s-.07-.02-.1-.02c-.02,0-.04,0-.06,0-.05-.01-.1-.02-.15-.03,0,0-.02,0-.03,0,0,0-.02,0-.03,0-.77-.17-1.59-.35-2.66-.6-.04,0-.08-.02-.12-.03-.06-.02-.12-.03-.18-.05-1.36-.34-2.73-.69-4.09-1.05,1.97.08,3.93.12,5.89.12.36,0,.73,0,1.1,0s.76,0,1.14,0c22.26,0,43.57-5.54,61.63-16.03,17.4-10.1,31.2-24.37,39.92-41.25,7.87-15.24,11.28-32.26,9.88-49.21-1.52-18.3-8.39-36.08-20.42-52.85-.03-.04-.06-.09-.09-.13l-.23-.32c-.16-.22-.31-.43-.47-.64-.12-.17-.26-.33-.42-.47-.01-.01-.03-.03-.04-.03-.15-.15-.3-.29-.46-.43-.57-.75-1.1-1.44-1.63-2.11-.01-.02-.03-.03-.04-.05-.22-.28-.44-.56-.67-.84l-.03-.05c-.04-.05-.09-.11-.13-.16-5.15-6.4-11.16-12.62-17.86-18.49-.02-.01-.03-.03-.05-.04-.34-.29-.8-.85-1.24-1.4-.58-.72-1.24-1.54-2.04-2.24-.02-.01-.03-.03-.05-.04-8.29-6.99-14.08-15.13-16.74-23.53-2.38-7.49-2.3-15.07.23-21.94,2.25-6.12,6.33-11.31,11.78-15.02,5.72-3.9,12.73-5.95,20.26-5.95,6.8,0,13.9,1.63,21.1,4.86,2.52,1.46,5.02,2.86,7.44,4.21l.89.5s.09.05.13.07l.75.42c.14.13.29.24.46.35.44.28,1.03.58,2,1.02l.24.13c.23.13.45.26.68.39.08.06.17.11.26.17,16.08,9.87,30.18,20.96,41.94,32.95,11.09,11.33,20.16,23.54,26.94,36.29,12.73,23.93,17.34,49.66,13.32,74.41Z"/>
    <path class="cls-4" d="M1131.3,951.33c-18.03,19.91-42.47,33.38-70.4,36.5-38.44,4.3-74.74-11.99-99.27-40.57-5.29-6.52-10.14-13.47-14.49-20.77,0,0-.01-.02-.02-.03-15.92-26.76-25.15-58.39-25.22-92.3,0-4.45-.31-3.19,0-7.55,2.13,9.61,5.46,13.27,9.05,22.2,18.67,46.56,56.19,83.01,102.67,99.21,17.06,5.95,35.34,9.16,54.32,9.15,14.99-.02,29.52-2.05,43.35-5.84Z"/>
    <path class="cls-4" d="M1288.79,889.85c-.45,1.11-.92,2.21-1.41,3.3-.24.55-.48,1.09-.73,1.63-6.64,14.53-16.04,28.09-27.89,40.09h-.01c-20.89,20.37-45.1,32.74-69.27,39.97,19.55-7.15,36.71-17.53,50.41-30.61,17.89-17.08,29.4-38.15,33.29-60.96,4.15-24.36-.61-49.69-13.77-73.24-7.01-12.55-16.39-24.57-27.86-35.72-8.07-7.84-17.21-15.28-27.31-22.24,6.19-4.16,4.5-14.73-7.34-22.54-24.97-16.63-16.77-35.64,9.3-23.73,1.3.75,2.59,1.5,3.87,2.27h0c1.72,1.34,3.85,2.66,5.79,3.6t0,0s.06.04.09.06c.54.36,1.08.72,1.62,1.08,29.48,19.85,50.22,42.4,63.26,65.84.48.86.95,1.72,1.41,2.59.24.45.48.9.71,1.36,18.67,36.06,19.38,73.98,5.83,107.24Z"/>
    <path class="cls-4" d="M1154.39,842.5c-.19-.29-.4-.56-.65-.82-1.02-1.06-2.46-1.72-4.05-1.72s-3.15.72-4.18,1.85c0,.01-.02.03-.03.04-.36.46-.68.95-.94,1.47-1.08,2.16-1.13,4.72.66,6.99.02,0,.03.03.04.04,4.28,5.14,5.08,11.53,1.73,14.45-1.69,1.6-4.33,1.8-7.06.98-1.97-.59-3.66,1.43-2.67,3.23,18.3,33.29,13.05,64.81-6.19,87.35-18.82,22.05-51.03,35.5-87.69,33.6-7.88-.4-15.96-1.52-24.17-3.41,6.52,2.69,13.33,4.82,20.38,6.33.03,0,.05.01.07.02,7.76,1.66,15.82,2.56,24.08,2.62.32,0,.63,0,.95,0,.26,0,.52,0,.78,0h0c.78,0,1.57,0,2.35,0,39.21.33,72.12-16.7,91.32-42.2,9.82-14.98,15.53-32.88,15.53-52.1,0-22.13-7.57-42.51-20.27-58.7ZM1162.59,946.76h0s-.03.05-.05.07c.02-.02.03-.05.04-.07Z"/>
  </g>
</svg>