<svg xmlns="http://www.w3.org/2000/svg" xmlns:xlink="http://www.w3.org/1999/xlink" width="153.357" height="22.849" viewBox="0 0 153.357 22.849"><defs><clipPath id="a"><rect width="153.357" height="22.849" fill="#fff"/></clipPath></defs><g clip-path="url(#a)"><path d="M0,18.422A8.517,8.517,0,0,1,8.564,9.891a8.263,8.263,0,0,1,8.1,5.588H13.888A5.459,5.459,0,0,0,8.564,12.4a5.861,5.861,0,0,0-5.952,6.018A5.861,5.861,0,0,0,8.564,24.44c2.48,0,4.365-.926,5.324-3.042h2.778a8.277,8.277,0,0,1-8.1,5.555A8.517,8.517,0,0,1,0,18.422" transform="translate(0 -4.137)" fill="#fff"/><path d="M40.835,24.473a5.971,5.971,0,0,0,6.051-6.051,5.872,5.872,0,0,0-6.051-6.051,6.051,6.051,0,1,0,0,12.1m-8.664-6.051A8.51,8.51,0,0,1,40.6,9.891a7.753,7.753,0,0,1,6.316,2.976V10.255h2.513V26.59H46.919V23.977A7.751,7.751,0,0,1,40.6,26.953a8.51,8.51,0,0,1-8.432-8.531" transform="translate(-13.456 -4.137)" fill="#fff"/><path d="M67.81,25.135V22.291a11.173,11.173,0,0,0,6.811,2.249c1.918,0,4.034-.331,4.034-2.447,0-1.686-1.785-2.315-4.4-2.579-3.538-.364-6.448-1.488-6.448-4.861,0-3.6,3.273-4.761,6.547-4.761a10.051,10.051,0,0,1,5.423,1.322v2.613A9.987,9.987,0,0,0,74.357,12.3c-2.315,0-3.77.628-3.77,2.315s1.587,2.215,3.8,2.447c3.67.364,6.778,1.223,6.778,5.126,0,3.108-2.943,4.795-6.811,4.795a11.781,11.781,0,0,1-6.547-1.852" transform="translate(-28.363 -4.137)" fill="#fff"/><path d="M99.083,11.782V18.33c0,2.711,1.72,3.439,4.993,2.678v2.315c-4.6.959-7.506-.694-7.506-4.761V11.782ZM96.57,2.16h2.513V7.021h4.761V9.5H96.57Z" transform="translate(-40.392 -0.903)" fill="#fff"/><path d="M127,16.569a5.417,5.417,0,0,0-5.589-4.166,5.893,5.893,0,0,0-5.654,4.166ZM121.48,9.89a8.237,8.237,0,0,1,8.4,8.167,5.3,5.3,0,0,1-.066.926H115.529a5.838,5.838,0,0,0,5.985,5.455c2.778,0,4.563-1.256,5.357-3.042h2.745a8.289,8.289,0,0,1-8.134,5.555,8.531,8.531,0,1,1,0-17.062" transform="translate(-47.216 -4.137)" fill="#fff"/><path d="M150.239,0V18.187c0,2.116,1.752,2.613,3.6,1.918v2.315c-3.208.893-6.118-.5-6.118-4V0Z" transform="translate(-61.789)" fill="#fff"/><path d="M168.723,24.473a5.971,5.971,0,0,0,6.051-6.051,5.872,5.872,0,0,0-6.051-6.051,6.051,6.051,0,1,0,0,12.1m-8.664-6.051a8.51,8.51,0,0,1,8.432-8.531,7.753,7.753,0,0,1,6.316,2.976V10.255h2.513V26.59h-2.513V23.977a7.751,7.751,0,0,1-6.316,2.976,8.51,8.51,0,0,1-8.432-8.531" transform="translate(-66.948 -4.137)" fill="#fff"/><path d="M200.143,2.217V7.045h4.993v2.48h-4.993v8.829c0,2.711,1.885,3.439,5.159,2.678v2.315c-4.6.959-7.672-.694-7.672-4.761V2.217Z" transform="translate(-82.663 -0.927)" fill="#fff"/><path d="M219.468,2.217V7.045h4.993v2.48h-4.993v8.829c0,2.711,1.885,3.439,5.159,2.678v2.315c-4.6.959-7.672-.694-7.672-4.761V2.217Z" transform="translate(-90.746 -0.927)" fill="#fff"/><path d="M242.685,24.44a5.888,5.888,0,0,0,5.985-6.018,5.969,5.969,0,1,0-11.937,0,5.881,5.881,0,0,0,5.952,6.018m-8.564-6.018a8.581,8.581,0,1,1,8.564,8.531,8.517,8.517,0,0,1-8.564-8.531" transform="translate(-97.926 -4.137)" fill="#fff"/></g></svg>